<svg xmlns="http://www.w3.org/2000/svg" xmlns:xlink="http://www.w3.org/1999/xlink" version="1.1" x="0px" y="0px" viewBox="0 0 100 125" enable-background="new 0 0 100 100" xml:space="preserve"><path fill="none" d="M50,42.5c-4.136,0-7.5,3.364-7.5,7.5s3.364,7.5,7.5,7.5s7.5-3.364,7.5-7.5S54.136,42.5,50,42.5z"/><path d="M94.886,49.292c-0.024-0.083-0.043-0.167-0.077-0.247c-0.036-0.087-0.085-0.167-0.131-0.249  c-0.033-0.06-0.06-0.123-0.098-0.181c-0.093-0.138-0.197-0.268-0.315-0.384l-8.836-8.836c-0.977-0.977-2.559-0.977-3.535,0  c-0.977,0.976-0.977,2.559,0,3.535l4.571,4.571H62.248c-0.325-1.594-0.957-3.075-1.826-4.387l17.13-17.13v6.465  c0,1.381,1.119,2.5,2.5,2.5s2.5-1.119,2.5-2.5v-12.5c0-0.164-0.018-0.328-0.05-0.489c-0.015-0.076-0.043-0.146-0.064-0.219  c-0.024-0.083-0.043-0.167-0.076-0.247c-0.037-0.087-0.086-0.167-0.132-0.249c-0.033-0.06-0.06-0.123-0.099-0.181  c-0.183-0.275-0.419-0.511-0.693-0.694c-0.057-0.038-0.118-0.063-0.178-0.096c-0.083-0.046-0.164-0.097-0.253-0.133  c-0.079-0.033-0.162-0.052-0.244-0.076c-0.074-0.022-0.145-0.051-0.222-0.066c-0.161-0.032-0.325-0.049-0.489-0.049h-12.5  c-1.381,0-2.5,1.119-2.5,2.5s1.119,2.5,2.5,2.5h6.465l-17.13,17.13c-1.312-0.869-2.793-1.501-4.387-1.826V13.536l4.571,4.571  c0.488,0.488,1.128,0.732,1.768,0.732s1.279-0.244,1.768-0.732c0.977-0.976,0.977-2.559,0-3.535l-8.836-8.836  c-0.117-0.117-0.247-0.222-0.385-0.314c-0.057-0.038-0.118-0.063-0.178-0.096c-0.083-0.046-0.164-0.097-0.253-0.133  c-0.079-0.033-0.162-0.051-0.244-0.076c-0.074-0.022-0.145-0.051-0.222-0.066c-0.323-0.064-0.655-0.064-0.979,0  c-0.076,0.015-0.147,0.043-0.222,0.065c-0.082,0.024-0.165,0.043-0.244,0.076c-0.089,0.037-0.169,0.086-0.252,0.133  c-0.06,0.033-0.121,0.059-0.179,0.097c-0.138,0.092-0.268,0.197-0.385,0.314l-8.836,8.836c-0.977,0.976-0.977,2.559,0,3.535  c0.977,0.977,2.559,0.977,3.535,0l4.571-4.571v24.216c-1.594,0.325-3.075,0.957-4.387,1.826l-17.131-17.13h6.466  c1.381,0,2.5-1.119,2.5-2.5s-1.119-2.5-2.5-2.5H19.947c-0.164,0-0.328,0.017-0.489,0.049c-0.076,0.015-0.147,0.043-0.222,0.065  c-0.082,0.024-0.165,0.043-0.244,0.076c-0.089,0.037-0.169,0.086-0.252,0.133c-0.06,0.033-0.121,0.059-0.179,0.097  c-0.274,0.183-0.511,0.419-0.694,0.694c-0.039,0.059-0.065,0.122-0.099,0.183c-0.045,0.082-0.095,0.16-0.13,0.247  c-0.034,0.081-0.053,0.166-0.078,0.249c-0.021,0.072-0.049,0.142-0.064,0.217c-0.031,0.161-0.049,0.325-0.049,0.489v12.5  c0,1.381,1.119,2.5,2.5,2.5s2.5-1.119,2.5-2.5v-6.465l17.131,17.13c-0.869,1.312-1.501,2.793-1.826,4.387H13.535l4.571-4.571  c0.977-0.976,0.977-2.559,0-3.535c-0.977-0.977-2.559-0.977-3.535,0L5.735,48.23c-0.118,0.117-0.223,0.246-0.315,0.384  c-0.039,0.059-0.065,0.122-0.099,0.183c-0.045,0.082-0.095,0.16-0.13,0.247c-0.034,0.081-0.053,0.166-0.078,0.25  c-0.021,0.072-0.049,0.142-0.064,0.217c-0.063,0.323-0.063,0.656,0,0.979c0.016,0.075,0.043,0.145,0.064,0.217  c0.025,0.084,0.044,0.168,0.078,0.25c0.035,0.086,0.084,0.165,0.129,0.246c0.034,0.062,0.061,0.125,0.1,0.184  c0.093,0.138,0.197,0.268,0.315,0.384l8.836,8.836c0.488,0.488,1.128,0.732,1.768,0.732s1.279-0.244,1.768-0.732  c0.977-0.976,0.977-2.559,0-3.535L13.535,52.5h24.217c0.325,1.593,0.957,3.075,1.826,4.387l-17.131,17.13v-6.465  c0-1.381-1.119-2.5-2.5-2.5s-2.5,1.119-2.5,2.5v12.5c0,0.164,0.018,0.328,0.049,0.489c0.016,0.075,0.043,0.145,0.064,0.217  c0.025,0.083,0.044,0.168,0.078,0.25c0.035,0.086,0.084,0.165,0.129,0.246c0.034,0.062,0.061,0.125,0.1,0.184  c0.184,0.275,0.42,0.511,0.694,0.694c0.058,0.039,0.12,0.064,0.18,0.098c0.083,0.046,0.163,0.095,0.251,0.132  c0.08,0.033,0.164,0.052,0.246,0.077c0.073,0.021,0.144,0.05,0.22,0.065c0.161,0.032,0.325,0.049,0.489,0.049h12.501  c1.381,0,2.5-1.119,2.5-2.5s-1.119-2.5-2.5-2.5h-6.466l17.131-17.13c1.312,0.869,2.793,1.501,4.387,1.826v24.216l-4.571-4.571  c-0.977-0.977-2.559-0.977-3.535,0c-0.977,0.976-0.977,2.559,0,3.535l8.836,8.836c0.117,0.117,0.247,0.222,0.385,0.314  c0.058,0.039,0.12,0.064,0.18,0.098c0.083,0.046,0.163,0.095,0.251,0.132c0.08,0.033,0.164,0.052,0.246,0.077  c0.073,0.021,0.144,0.05,0.22,0.065C49.672,94.983,49.836,95,50,95s0.328-0.017,0.489-0.049c0.076-0.015,0.146-0.043,0.22-0.065  c0.083-0.024,0.166-0.043,0.246-0.077c0.089-0.037,0.169-0.086,0.252-0.132c0.059-0.033,0.121-0.059,0.179-0.097  c0.138-0.092,0.268-0.197,0.385-0.314l8.836-8.836c0.977-0.976,0.977-2.559,0-3.535c-0.977-0.977-2.559-0.977-3.535,0L52.5,86.464  V62.248c1.594-0.325,3.075-0.957,4.387-1.826l17.13,17.13h-6.465c-1.381,0-2.5,1.119-2.5,2.5s1.119,2.5,2.5,2.5h12.5  c0.164,0,0.328-0.017,0.489-0.049c0.076-0.015,0.146-0.043,0.22-0.065c0.083-0.024,0.166-0.043,0.246-0.076  c0.089-0.037,0.169-0.086,0.252-0.132c0.06-0.033,0.121-0.059,0.179-0.097c0.274-0.183,0.511-0.419,0.693-0.694  c0.039-0.058,0.066-0.122,0.1-0.182c0.045-0.082,0.095-0.161,0.13-0.248c0.034-0.081,0.053-0.165,0.077-0.248  c0.021-0.073,0.05-0.143,0.064-0.219c0.032-0.162,0.05-0.325,0.05-0.489v-12.5c0-1.381-1.119-2.5-2.5-2.5s-2.5,1.119-2.5,2.5v6.465  l-17.13-17.13c0.869-1.312,1.501-2.793,1.826-4.387h24.217l-4.571,4.571c-0.977,0.976-0.977,2.559,0,3.535  c0.488,0.488,1.128,0.732,1.768,0.732s1.279-0.244,1.768-0.732l8.836-8.836c0.118-0.117,0.223-0.246,0.315-0.384  c0.038-0.058,0.064-0.122,0.099-0.182c0.045-0.082,0.095-0.161,0.13-0.248c0.034-0.081,0.053-0.165,0.077-0.248  c0.021-0.073,0.05-0.143,0.065-0.219c0.063-0.323,0.063-0.656,0-0.979C94.936,49.435,94.907,49.365,94.886,49.292z M50,57.5  c-4.136,0-7.5-3.364-7.5-7.5s3.364-7.5,7.5-7.5s7.5,3.364,7.5,7.5S54.136,57.5,50,57.5z"/><text x="0" y="115" fill="#000000" font-size="5px" font-weight="bold" font-family="'Helvetica Neue', Helvetica, Arial-Unicode, Arial, Sans-serif"></text><text x="0" y="120" fill="#000000" font-size="5px" font-weight="bold" font-family="'Helvetica Neue', Helvetica, Arial-Unicode, Arial, Sans-serif"></text></svg>