<svg xmlns="http://www.w3.org/2000/svg" xmlns:xlink="http://www.w3.org/1999/xlink" version="1.1" x="0px" y="0px" viewBox="0 0 164 205" enable-background="new 0 0 164 164" xml:space="preserve"><g><path fill-rule="evenodd" clip-rule="evenodd" d="M151.232,89.982c6.875,0,12.447,5.431,12.447,12.128   c0,6.698-5.572,12.129-12.447,12.129s-12.447-5.431-12.447-12.129C138.785,95.413,144.357,89.982,151.232,89.982L151.232,89.982z    M12.447,89.982c6.875,0,12.448,5.431,12.448,12.128c0,6.698-5.573,12.129-12.448,12.129C5.573,114.239,0,108.809,0,102.11   C0,95.413,5.573,89.982,12.447,89.982L12.447,89.982z M78.305,128.284c0-3.192,0-6.384,0-9.575   c-20.272-3.292-32.704-10.989-43.089-25.216c-2.127,0.958-3.936,1.915-6.064,2.873c-1.17-1.81-2.66-3.937-3.83-5.745   c3.724-2.234,7.447-4.149,11.171-6.384c27.271,37.145,63.445,37.145,90.717,0c3.724,2.234,7.447,4.149,11.171,6.384   c-1.17,1.809-2.659,3.936-3.829,5.745c-2.129-0.958-3.938-1.915-6.064-2.873c-10.387,14.227-22.817,21.924-43.09,25.216   c0,3.191,0,6.383,0,9.575C83.032,128.284,80.668,128.284,78.305,128.284L78.305,128.284z M81.851,130.525   c6.875,0,12.447,5.431,12.447,12.129c0,6.697-5.572,12.128-12.447,12.128s-12.448-5.431-12.448-12.128   C69.403,135.956,74.976,130.525,81.851,130.525z"/><path fill-rule="evenodd" clip-rule="evenodd" d="M93.313,41.59c2.848-1.891,3.295-4.175,2.814-7.859   c-1.232-0.616-1.406-0.618-2.181-0.088c1.14-5.017,1.383-11.615,0.707-15.184c-1.31-6.911-7.227-9.104-13.687-8.911   c-6.428,0.194-11.875,0.826-13.308,7.914c-1.126,5.559-0.537,11.901,0.63,16.13c-0.712-0.479-0.914-0.457-2.105,0.139   c-0.472,3.615-0.05,5.882,2.656,7.752C72.566,59.625,90.698,60.41,93.313,41.59L93.313,41.59z M79.339,64.912   c-0.644-1.646-1.519-3.653-2.182-5.229l1.197-1.525c2.045,0.039,4.118-0.039,6.164-0.003l1.233,1.478   c-0.641,1.58-1.122,3.611-1.694,5.28H79.339L79.339,64.912z M66.121,58.646c2.194,11.329,6.562,18.995,11.843,22.128   c0.516-4.717,1.03-9.599,1.599-14.439h4.444c0.576,4.954,1.264,9.811,1.947,14.675c4.563-2.543,8.791-9.977,11.681-22.513   c8.871,8.187,19.58-1.174,24.644,24.039c-21.095,32.773-55.875,34.901-81.553,0C45.905,57.793,58.773,66.391,66.121,58.646z"/></g><text x="0" y="179" fill="#000000" font-size="5px" font-weight="bold" font-family="'Helvetica Neue', Helvetica, Arial-Unicode, Arial, Sans-serif"></text><text x="0" y="184" fill="#000000" font-size="5px" font-weight="bold" font-family="'Helvetica Neue', Helvetica, Arial-Unicode, Arial, Sans-serif"></text></svg>