<svg xmlns="http://www.w3.org/2000/svg" xmlns:xlink="http://www.w3.org/1999/xlink" version="1.2" baseProfile="tiny" x="0px" y="0px" viewBox="0 0 100 125" xml:space="preserve"><path d="M20,82.5h60c1.381,0,2.5-1.119,2.5-2.5V20c0-1.381-1.119-2.5-2.5-2.5H20c-1.381,0-2.5,1.119-2.5,2.5v60  C17.5,81.381,18.619,82.5,20,82.5z M22.5,52.5h25v25h-25V52.5z M52.5,77.5v-25h25v25H52.5z M77.5,47.5h-25v-25h25V47.5z M47.5,22.5  v25h-25v-25H47.5z"/><text x="0" y="115" fill="#000000" font-size="5px" font-weight="bold" font-family="'Helvetica Neue', Helvetica, Arial-Unicode, Arial, Sans-serif"></text><text x="0" y="120" fill="#000000" font-size="5px" font-weight="bold" font-family="'Helvetica Neue', Helvetica, Arial-Unicode, Arial, Sans-serif"></text></svg>